<mxfile host="app.diagrams.net" agent="Mozilla/5.0 (Windows NT 10.0; Win64; x64) AppleWebKit/537.36 (KHTML, like Gecko) Chrome/128.0.0.0 YaBrowser/24.10.0.0 Safari/537.36" version="25.0.3">
  <diagram name="Страница — 1" id="iXloyhxf4CNCZHahWOaj">
    <mxGraphModel dx="1290" dy="575" grid="1" gridSize="10" guides="1" tooltips="1" connect="1" arrows="1" fold="1" page="1" pageScale="1" pageWidth="827" pageHeight="1169" math="0" shadow="0">
      <root>
        <mxCell id="0" />
        <mxCell id="1" parent="0" />
        <mxCell id="KcLvzgO_E-JEy8P3smX2-10" value="" style="rounded=0;whiteSpace=wrap;html=1;" vertex="1" parent="1">
          <mxGeometry x="255.5" y="140" width="160" height="60" as="geometry" />
        </mxCell>
        <mxCell id="KcLvzgO_E-JEy8P3smX2-9" value="" style="rounded=0;whiteSpace=wrap;html=1;" vertex="1" parent="1">
          <mxGeometry x="255.5" y="610" width="160" height="60" as="geometry" />
        </mxCell>
        <mxCell id="KcLvzgO_E-JEy8P3smX2-2" value="" style="rounded=0;whiteSpace=wrap;html=1;" vertex="1" parent="1">
          <mxGeometry x="20" y="650" width="160" height="60" as="geometry" />
        </mxCell>
        <mxCell id="KcLvzgO_E-JEy8P3smX2-1" value="" style="rounded=0;whiteSpace=wrap;html=1;" vertex="1" parent="1">
          <mxGeometry x="20" y="970" width="160" height="40" as="geometry" />
        </mxCell>
        <mxCell id="p6gQJtzipxJj3ExKCdNy-2" style="edgeStyle=orthogonalEdgeStyle;rounded=0;orthogonalLoop=1;jettySize=auto;html=1;" parent="1" source="p6gQJtzipxJj3ExKCdNy-1" target="p6gQJtzipxJj3ExKCdNy-3" edge="1">
          <mxGeometry relative="1" as="geometry">
            <mxPoint x="100" y="70" as="targetPoint" />
          </mxGeometry>
        </mxCell>
        <mxCell id="p6gQJtzipxJj3ExKCdNy-1" value="Начало" style="ellipse;whiteSpace=wrap;html=1;" parent="1" vertex="1">
          <mxGeometry x="20" width="160" height="40" as="geometry" />
        </mxCell>
        <mxCell id="p6gQJtzipxJj3ExKCdNy-4" style="edgeStyle=orthogonalEdgeStyle;rounded=0;orthogonalLoop=1;jettySize=auto;html=1;entryX=0.5;entryY=0;entryDx=0;entryDy=0;" parent="1" source="p6gQJtzipxJj3ExKCdNy-3" target="p6gQJtzipxJj3ExKCdNy-5" edge="1">
          <mxGeometry relative="1" as="geometry">
            <mxPoint x="100" y="160" as="targetPoint" />
          </mxGeometry>
        </mxCell>
        <mxCell id="p6gQJtzipxJj3ExKCdNy-3" value="ввод w,h" style="shape=parallelogram;perimeter=parallelogramPerimeter;whiteSpace=wrap;html=1;fixedSize=1;" parent="1" vertex="1">
          <mxGeometry x="20" y="70" width="160" height="40" as="geometry" />
        </mxCell>
        <mxCell id="p6gQJtzipxJj3ExKCdNy-6" style="edgeStyle=orthogonalEdgeStyle;rounded=0;orthogonalLoop=1;jettySize=auto;html=1;entryX=0.5;entryY=0;entryDx=0;entryDy=0;" parent="1" source="p6gQJtzipxJj3ExKCdNy-12" target="p6gQJtzipxJj3ExKCdNy-7" edge="1">
          <mxGeometry relative="1" as="geometry">
            <mxPoint x="100" y="200" as="targetPoint" />
          </mxGeometry>
        </mxCell>
        <mxCell id="p6gQJtzipxJj3ExKCdNy-5" value="setwindowsize(w,h)&lt;div&gt;x0:= w div 2&lt;/div&gt;&lt;div&gt;y0:= h div 2&lt;/div&gt;" style="rounded=0;whiteSpace=wrap;html=1;" parent="1" vertex="1">
          <mxGeometry x="20" y="130" width="160" height="40" as="geometry" />
        </mxCell>
        <mxCell id="p6gQJtzipxJj3ExKCdNy-8" style="edgeStyle=orthogonalEdgeStyle;rounded=0;orthogonalLoop=1;jettySize=auto;html=1;" parent="1" source="p6gQJtzipxJj3ExKCdNy-7" target="p6gQJtzipxJj3ExKCdNy-9" edge="1">
          <mxGeometry relative="1" as="geometry">
            <mxPoint x="100" y="260" as="targetPoint" />
          </mxGeometry>
        </mxCell>
        <mxCell id="p6gQJtzipxJj3ExKCdNy-7" value="line(10,y0,w-10,y0)&lt;div&gt;line(x0,10,x0,h-10)&lt;/div&gt;" style="rounded=0;whiteSpace=wrap;html=1;" parent="1" vertex="1">
          <mxGeometry x="20" y="350" width="160" height="40" as="geometry" />
        </mxCell>
        <mxCell id="p6gQJtzipxJj3ExKCdNy-14" style="edgeStyle=orthogonalEdgeStyle;rounded=0;orthogonalLoop=1;jettySize=auto;html=1;entryX=0.5;entryY=0;entryDx=0;entryDy=0;" parent="1" source="p6gQJtzipxJj3ExKCdNy-9" target="p6gQJtzipxJj3ExKCdNy-15" edge="1">
          <mxGeometry relative="1" as="geometry">
            <mxPoint x="100" y="480" as="targetPoint" />
          </mxGeometry>
        </mxCell>
        <mxCell id="p6gQJtzipxJj3ExKCdNy-9" value="ввод k" style="shape=parallelogram;perimeter=parallelogramPerimeter;whiteSpace=wrap;html=1;fixedSize=1;" parent="1" vertex="1">
          <mxGeometry x="20" y="410" width="160" height="40" as="geometry" />
        </mxCell>
        <mxCell id="p6gQJtzipxJj3ExKCdNy-13" value="" style="edgeStyle=orthogonalEdgeStyle;rounded=0;orthogonalLoop=1;jettySize=auto;html=1;entryX=0.5;entryY=0;entryDx=0;entryDy=0;" parent="1" source="p6gQJtzipxJj3ExKCdNy-5" target="p6gQJtzipxJj3ExKCdNy-12" edge="1">
          <mxGeometry relative="1" as="geometry">
            <mxPoint x="100" y="350" as="targetPoint" />
            <mxPoint x="100" y="170" as="sourcePoint" />
          </mxGeometry>
        </mxCell>
        <mxCell id="p6gQJtzipxJj3ExKCdNy-12" value="TextOut(0,0,&#39;построить график функции, ограниченной кривой x * x * x + 1 * x + 12&#39;);" style="rounded=0;whiteSpace=wrap;html=1;" parent="1" vertex="1">
          <mxGeometry x="20" y="270" width="160" height="60" as="geometry" />
        </mxCell>
        <mxCell id="p6gQJtzipxJj3ExKCdNy-11" value="&lt;div&gt;TextOut(h - 40, y0, &#39;Ось Х&#39;);&lt;/div&gt;&lt;div&gt;&amp;nbsp; TextOut(x0 - 40, 20, &#39;Ось Y&#39;);&lt;/div&gt;" style="rounded=0;whiteSpace=wrap;html=1;" parent="1" vertex="1">
          <mxGeometry x="20" y="190" width="160" height="60" as="geometry" />
        </mxCell>
        <mxCell id="p6gQJtzipxJj3ExKCdNy-16" style="edgeStyle=orthogonalEdgeStyle;rounded=0;orthogonalLoop=1;jettySize=auto;html=1;" parent="1" source="p6gQJtzipxJj3ExKCdNy-15" target="p6gQJtzipxJj3ExKCdNy-17" edge="1">
          <mxGeometry relative="1" as="geometry">
            <mxPoint x="100" y="540" as="targetPoint" />
          </mxGeometry>
        </mxCell>
        <mxCell id="p6gQJtzipxJj3ExKCdNy-15" value="ввод a,b" style="shape=parallelogram;perimeter=parallelogramPerimeter;whiteSpace=wrap;html=1;fixedSize=1;" parent="1" vertex="1">
          <mxGeometry x="20" y="470" width="160" height="40" as="geometry" />
        </mxCell>
        <mxCell id="p6gQJtzipxJj3ExKCdNy-18" style="edgeStyle=orthogonalEdgeStyle;rounded=0;orthogonalLoop=1;jettySize=auto;html=1;" parent="1" source="p6gQJtzipxJj3ExKCdNy-17" target="p6gQJtzipxJj3ExKCdNy-19" edge="1">
          <mxGeometry relative="1" as="geometry">
            <mxPoint x="100" y="590" as="targetPoint" />
          </mxGeometry>
        </mxCell>
        <mxCell id="p6gQJtzipxJj3ExKCdNy-17" value="x1:=a" style="rounded=0;whiteSpace=wrap;html=1;" parent="1" vertex="1">
          <mxGeometry x="20" y="530" width="160" height="30" as="geometry" />
        </mxCell>
        <mxCell id="p6gQJtzipxJj3ExKCdNy-20" style="edgeStyle=orthogonalEdgeStyle;rounded=0;orthogonalLoop=1;jettySize=auto;html=1;" parent="1" source="p6gQJtzipxJj3ExKCdNy-19" target="p6gQJtzipxJj3ExKCdNy-21" edge="1">
          <mxGeometry relative="1" as="geometry">
            <mxPoint x="100" y="670" as="targetPoint" />
          </mxGeometry>
        </mxCell>
        <mxCell id="p6gQJtzipxJj3ExKCdNy-19" value="Цикл 1&lt;div&gt;x1&amp;gt;b&lt;/div&gt;" style="shape=loopLimit;whiteSpace=wrap;html=1;" parent="1" vertex="1">
          <mxGeometry x="20" y="584.5" width="160" height="45.5" as="geometry" />
        </mxCell>
        <mxCell id="p6gQJtzipxJj3ExKCdNy-22" style="edgeStyle=orthogonalEdgeStyle;rounded=0;orthogonalLoop=1;jettySize=auto;html=1;" parent="1" source="p6gQJtzipxJj3ExKCdNy-21" target="p6gQJtzipxJj3ExKCdNy-23" edge="1">
          <mxGeometry relative="1" as="geometry">
            <mxPoint x="100" y="740" as="targetPoint" />
          </mxGeometry>
        </mxCell>
        <mxCell id="p6gQJtzipxJj3ExKCdNy-21" value="&lt;div&gt;y1 := Func(x1)&lt;/div&gt;&lt;div&gt;&amp;nbsp; &amp;nbsp; x := x0 + Round(x1 * k)&lt;/div&gt;&lt;div&gt;&amp;nbsp; &amp;nbsp; y := y0 - Round(y1 * k)&lt;/div&gt;" style="rounded=0;whiteSpace=wrap;html=1;" parent="1" vertex="1">
          <mxGeometry x="30" y="650" width="140" height="60" as="geometry" />
        </mxCell>
        <mxCell id="p6gQJtzipxJj3ExKCdNy-24" style="edgeStyle=orthogonalEdgeStyle;rounded=0;orthogonalLoop=1;jettySize=auto;html=1;entryX=0.5;entryY=1;entryDx=0;entryDy=0;" parent="1" source="p6gQJtzipxJj3ExKCdNy-23" target="p6gQJtzipxJj3ExKCdNy-25" edge="1">
          <mxGeometry relative="1" as="geometry">
            <mxPoint x="100" y="810" as="targetPoint" />
          </mxGeometry>
        </mxCell>
        <mxCell id="p6gQJtzipxJj3ExKCdNy-23" value="&lt;div&gt;SetPixel(x, y, clLime)&lt;/div&gt;&lt;div&gt;&amp;nbsp; &amp;nbsp; x1 += 0.0001&lt;/div&gt;" style="rounded=0;whiteSpace=wrap;html=1;" parent="1" vertex="1">
          <mxGeometry x="20" y="730" width="160" height="50" as="geometry" />
        </mxCell>
        <mxCell id="p6gQJtzipxJj3ExKCdNy-26" style="edgeStyle=orthogonalEdgeStyle;rounded=0;orthogonalLoop=1;jettySize=auto;html=1;" parent="1" source="p6gQJtzipxJj3ExKCdNy-25" target="p6gQJtzipxJj3ExKCdNy-27" edge="1">
          <mxGeometry relative="1" as="geometry">
            <mxPoint x="100" y="870" as="targetPoint" />
          </mxGeometry>
        </mxCell>
        <mxCell id="p6gQJtzipxJj3ExKCdNy-25" value="Цикл 1" style="shape=loopLimit;whiteSpace=wrap;html=1;direction=west;" parent="1" vertex="1">
          <mxGeometry x="20" y="800" width="160" height="45.5" as="geometry" />
        </mxCell>
        <mxCell id="p6gQJtzipxJj3ExKCdNy-28" style="edgeStyle=orthogonalEdgeStyle;rounded=0;orthogonalLoop=1;jettySize=auto;html=1;" parent="1" source="KcLvzgO_E-JEy8P3smX2-5" target="p6gQJtzipxJj3ExKCdNy-29" edge="1">
          <mxGeometry relative="1" as="geometry">
            <mxPoint x="100" y="940" as="targetPoint" />
          </mxGeometry>
        </mxCell>
        <mxCell id="p6gQJtzipxJj3ExKCdNy-27" value="ввод a,b,n" style="shape=parallelogram;perimeter=parallelogramPerimeter;whiteSpace=wrap;html=1;fixedSize=1;" parent="1" vertex="1">
          <mxGeometry x="20" y="860" width="160" height="40" as="geometry" />
        </mxCell>
        <mxCell id="p6gQJtzipxJj3ExKCdNy-30" style="edgeStyle=orthogonalEdgeStyle;rounded=0;orthogonalLoop=1;jettySize=auto;html=1;" parent="1" source="p6gQJtzipxJj3ExKCdNy-29" target="p6gQJtzipxJj3ExKCdNy-31" edge="1">
          <mxGeometry relative="1" as="geometry">
            <mxPoint x="100" y="1030" as="targetPoint" />
          </mxGeometry>
        </mxCell>
        <mxCell id="p6gQJtzipxJj3ExKCdNy-29" value="&lt;div&gt;&lt;span style=&quot;background-color: initial;&quot;&gt;result := Traps(Func, a, b, n)&lt;/span&gt;&lt;br&gt;&lt;/div&gt;" style="rounded=0;whiteSpace=wrap;html=1;" parent="1" vertex="1">
          <mxGeometry x="30" y="970" width="140" height="40" as="geometry" />
        </mxCell>
        <mxCell id="p6gQJtzipxJj3ExKCdNy-32" style="edgeStyle=orthogonalEdgeStyle;rounded=0;orthogonalLoop=1;jettySize=auto;html=1;" parent="1" source="p6gQJtzipxJj3ExKCdNy-31" target="p6gQJtzipxJj3ExKCdNy-33" edge="1">
          <mxGeometry relative="1" as="geometry">
            <mxPoint x="100" y="1100" as="targetPoint" />
          </mxGeometry>
        </mxCell>
        <mxCell id="p6gQJtzipxJj3ExKCdNy-31" value="вывод result" style="shape=parallelogram;perimeter=parallelogramPerimeter;whiteSpace=wrap;html=1;fixedSize=1;" parent="1" vertex="1">
          <mxGeometry x="20" y="1030" width="160" height="40" as="geometry" />
        </mxCell>
        <mxCell id="p6gQJtzipxJj3ExKCdNy-33" value="A" style="ellipse;whiteSpace=wrap;html=1;aspect=fixed;" parent="1" vertex="1">
          <mxGeometry x="74.5" y="1089" width="51" height="51" as="geometry" />
        </mxCell>
        <mxCell id="p6gQJtzipxJj3ExKCdNy-35" style="edgeStyle=orthogonalEdgeStyle;rounded=0;orthogonalLoop=1;jettySize=auto;html=1;entryX=0.5;entryY=0;entryDx=0;entryDy=0;" parent="1" source="p6gQJtzipxJj3ExKCdNy-34" target="p6gQJtzipxJj3ExKCdNy-36" edge="1">
          <mxGeometry relative="1" as="geometry">
            <mxPoint x="335.5" y="80" as="targetPoint" />
          </mxGeometry>
        </mxCell>
        <mxCell id="p6gQJtzipxJj3ExKCdNy-34" value="A" style="ellipse;whiteSpace=wrap;html=1;aspect=fixed;" parent="1" vertex="1">
          <mxGeometry x="310" width="51" height="51" as="geometry" />
        </mxCell>
        <mxCell id="p6gQJtzipxJj3ExKCdNy-37" style="edgeStyle=orthogonalEdgeStyle;rounded=0;orthogonalLoop=1;jettySize=auto;html=1;" parent="1" source="p6gQJtzipxJj3ExKCdNy-36" target="p6gQJtzipxJj3ExKCdNy-38" edge="1">
          <mxGeometry relative="1" as="geometry">
            <mxPoint x="335.5" y="140" as="targetPoint" />
          </mxGeometry>
        </mxCell>
        <mxCell id="p6gQJtzipxJj3ExKCdNy-36" value="Цикл 2&lt;div&gt;x1&amp;gt;b&lt;/div&gt;" style="shape=loopLimit;whiteSpace=wrap;html=1;" parent="1" vertex="1">
          <mxGeometry x="255.5" y="70" width="160" height="45.5" as="geometry" />
        </mxCell>
        <mxCell id="p6gQJtzipxJj3ExKCdNy-39" style="edgeStyle=orthogonalEdgeStyle;rounded=0;orthogonalLoop=1;jettySize=auto;html=1;" parent="1" source="p6gQJtzipxJj3ExKCdNy-38" target="p6gQJtzipxJj3ExKCdNy-40" edge="1">
          <mxGeometry relative="1" as="geometry">
            <mxPoint x="335.5" y="230" as="targetPoint" />
          </mxGeometry>
        </mxCell>
        <mxCell id="p6gQJtzipxJj3ExKCdNy-38" value="&lt;div&gt;y1 := Func(x1)&lt;/div&gt;&lt;div&gt;&amp;nbsp; &amp;nbsp; y2 := Func(x1 + sh)&lt;/div&gt;" style="rounded=0;whiteSpace=wrap;html=1;" parent="1" vertex="1">
          <mxGeometry x="265.5" y="140" width="140" height="60" as="geometry" />
        </mxCell>
        <mxCell id="p6gQJtzipxJj3ExKCdNy-41" style="edgeStyle=orthogonalEdgeStyle;rounded=0;orthogonalLoop=1;jettySize=auto;html=1;" parent="1" source="p6gQJtzipxJj3ExKCdNy-40" target="p6gQJtzipxJj3ExKCdNy-42" edge="1">
          <mxGeometry relative="1" as="geometry">
            <mxPoint x="335.5" y="310" as="targetPoint" />
          </mxGeometry>
        </mxCell>
        <mxCell id="p6gQJtzipxJj3ExKCdNy-40" value="&lt;div&gt;&lt;span style=&quot;background-color: initial;&quot;&gt;x2 := x1 + sh&lt;/span&gt;&lt;/div&gt;&lt;div&gt;&amp;nbsp;x := x0 + Round(x1 * k)&lt;/div&gt;&lt;div&gt;&amp;nbsp;x3 := x0 + Round(x2 * k)&lt;/div&gt;&lt;div&gt;&amp;nbsp; &amp;nbsp; y := y0 - Round(y1 * k)&lt;/div&gt;" style="rounded=0;whiteSpace=wrap;html=1;" parent="1" vertex="1">
          <mxGeometry x="255.5" y="220" width="160" height="60" as="geometry" />
        </mxCell>
        <mxCell id="p6gQJtzipxJj3ExKCdNy-43" style="edgeStyle=orthogonalEdgeStyle;rounded=0;orthogonalLoop=1;jettySize=auto;html=1;" parent="1" source="p6gQJtzipxJj3ExKCdNy-42" target="p6gQJtzipxJj3ExKCdNy-44" edge="1">
          <mxGeometry relative="1" as="geometry">
            <mxPoint x="335.5" y="390" as="targetPoint" />
          </mxGeometry>
        </mxCell>
        <mxCell id="p6gQJtzipxJj3ExKCdNy-42" value="&lt;div&gt;y3 := y0 - Round(y2 * k)&lt;/div&gt;&lt;div&gt;&amp;nbsp; &amp;nbsp; SetPenWidth(3)&lt;/div&gt;&lt;div&gt;&amp;nbsp; &amp;nbsp; Line(x, y, x, y0, clBlue)&lt;/div&gt;" style="rounded=0;whiteSpace=wrap;html=1;" parent="1" vertex="1">
          <mxGeometry x="255.5" y="310" width="160" height="60" as="geometry" />
        </mxCell>
        <mxCell id="p6gQJtzipxJj3ExKCdNy-45" style="edgeStyle=orthogonalEdgeStyle;rounded=0;orthogonalLoop=1;jettySize=auto;html=1;" parent="1" source="p6gQJtzipxJj3ExKCdNy-44" target="p6gQJtzipxJj3ExKCdNy-46" edge="1">
          <mxGeometry relative="1" as="geometry">
            <mxPoint x="335.5" y="470" as="targetPoint" />
          </mxGeometry>
        </mxCell>
        <mxCell id="p6gQJtzipxJj3ExKCdNy-57" style="edgeStyle=orthogonalEdgeStyle;rounded=0;orthogonalLoop=1;jettySize=auto;html=1;" parent="1" source="p6gQJtzipxJj3ExKCdNy-44" edge="1">
          <mxGeometry relative="1" as="geometry">
            <mxPoint x="336" y="880" as="targetPoint" />
            <Array as="points">
              <mxPoint x="450" y="415" />
              <mxPoint x="450" y="850" />
              <mxPoint x="336" y="850" />
              <mxPoint x="336" y="880" />
            </Array>
          </mxGeometry>
        </mxCell>
        <mxCell id="p6gQJtzipxJj3ExKCdNy-44" value="round(x1)&amp;lt;&amp;gt;b" style="rhombus;whiteSpace=wrap;html=1;" parent="1" vertex="1">
          <mxGeometry x="255.5" y="390" width="160" height="50" as="geometry" />
        </mxCell>
        <mxCell id="p6gQJtzipxJj3ExKCdNy-47" style="edgeStyle=orthogonalEdgeStyle;rounded=0;orthogonalLoop=1;jettySize=auto;html=1;" parent="1" source="p6gQJtzipxJj3ExKCdNy-46" target="p6gQJtzipxJj3ExKCdNy-48" edge="1">
          <mxGeometry relative="1" as="geometry">
            <mxPoint x="335.5" y="550" as="targetPoint" />
          </mxGeometry>
        </mxCell>
        <mxCell id="p6gQJtzipxJj3ExKCdNy-46" value="&lt;div&gt;Line(x, y, x3, y3, clBlue)&lt;/div&gt;&lt;div&gt;&amp;nbsp; &amp;nbsp; i:=x&lt;/div&gt;" style="rounded=0;whiteSpace=wrap;html=1;" parent="1" vertex="1">
          <mxGeometry x="255.5" y="470" width="160" height="50" as="geometry" />
        </mxCell>
        <mxCell id="p6gQJtzipxJj3ExKCdNy-50" style="edgeStyle=orthogonalEdgeStyle;rounded=0;orthogonalLoop=1;jettySize=auto;html=1;" parent="1" source="p6gQJtzipxJj3ExKCdNy-48" target="p6gQJtzipxJj3ExKCdNy-51" edge="1">
          <mxGeometry relative="1" as="geometry">
            <mxPoint x="335.5" y="610" as="targetPoint" />
          </mxGeometry>
        </mxCell>
        <mxCell id="p6gQJtzipxJj3ExKCdNy-48" value="Цикл 3&lt;div&gt;i&amp;gt;=x3&lt;br&gt;&lt;/div&gt;" style="shape=loopLimit;whiteSpace=wrap;html=1;" parent="1" vertex="1">
          <mxGeometry x="255.5" y="539" width="160" height="45.5" as="geometry" />
        </mxCell>
        <mxCell id="p6gQJtzipxJj3ExKCdNy-52" style="edgeStyle=orthogonalEdgeStyle;rounded=0;orthogonalLoop=1;jettySize=auto;html=1;" parent="1" source="p6gQJtzipxJj3ExKCdNy-51" target="p6gQJtzipxJj3ExKCdNy-53" edge="1">
          <mxGeometry relative="1" as="geometry">
            <mxPoint x="335.5" y="720" as="targetPoint" />
          </mxGeometry>
        </mxCell>
        <mxCell id="p6gQJtzipxJj3ExKCdNy-51" value="&lt;div&gt;y_start := y0 Round(Func(x1 + (i - x) / k) * k)&lt;/div&gt;" style="rounded=0;whiteSpace=wrap;html=1;" parent="1" vertex="1">
          <mxGeometry x="265.5" y="610" width="140" height="60" as="geometry" />
        </mxCell>
        <mxCell id="p6gQJtzipxJj3ExKCdNy-54" style="edgeStyle=orthogonalEdgeStyle;rounded=0;orthogonalLoop=1;jettySize=auto;html=1;entryX=0.5;entryY=1;entryDx=0;entryDy=0;" parent="1" source="p6gQJtzipxJj3ExKCdNy-53" target="p6gQJtzipxJj3ExKCdNy-55" edge="1">
          <mxGeometry relative="1" as="geometry">
            <mxPoint x="335.5" y="780" as="targetPoint" />
          </mxGeometry>
        </mxCell>
        <mxCell id="p6gQJtzipxJj3ExKCdNy-53" value="&lt;div&gt;setpenwidth(1)&lt;/div&gt;&lt;div&gt;Line(i, y_start, i, y0, clred)&lt;/div&gt;&lt;div&gt;i+=4&lt;/div&gt;" style="rounded=0;whiteSpace=wrap;html=1;" parent="1" vertex="1">
          <mxGeometry x="255.5" y="700" width="160" height="60" as="geometry" />
        </mxCell>
        <mxCell id="p6gQJtzipxJj3ExKCdNy-59" style="edgeStyle=orthogonalEdgeStyle;rounded=0;orthogonalLoop=1;jettySize=auto;html=1;entryX=0.5;entryY=0;entryDx=0;entryDy=0;" parent="1" source="p6gQJtzipxJj3ExKCdNy-55" edge="1" target="p6gQJtzipxJj3ExKCdNy-60">
          <mxGeometry relative="1" as="geometry">
            <mxPoint x="335.5" y="880" as="targetPoint" />
          </mxGeometry>
        </mxCell>
        <mxCell id="p6gQJtzipxJj3ExKCdNy-55" value="Цикл 3" style="shape=loopLimit;whiteSpace=wrap;html=1;direction=west;" parent="1" vertex="1">
          <mxGeometry x="255" y="780" width="160" height="45.5" as="geometry" />
        </mxCell>
        <mxCell id="KcLvzgO_E-JEy8P3smX2-11" style="edgeStyle=orthogonalEdgeStyle;rounded=0;orthogonalLoop=1;jettySize=auto;html=1;exitX=0.5;exitY=1;exitDx=0;exitDy=0;entryX=0.5;entryY=1;entryDx=0;entryDy=0;" edge="1" parent="1" source="p6gQJtzipxJj3ExKCdNy-60" target="p6gQJtzipxJj3ExKCdNy-62">
          <mxGeometry relative="1" as="geometry" />
        </mxCell>
        <mxCell id="p6gQJtzipxJj3ExKCdNy-60" value="x1+=sh" style="rounded=0;whiteSpace=wrap;html=1;" parent="1" vertex="1">
          <mxGeometry x="255" y="880" width="160" height="40" as="geometry" />
        </mxCell>
        <mxCell id="p6gQJtzipxJj3ExKCdNy-63" style="edgeStyle=orthogonalEdgeStyle;rounded=0;orthogonalLoop=1;jettySize=auto;html=1;" parent="1" source="p6gQJtzipxJj3ExKCdNy-62" target="p6gQJtzipxJj3ExKCdNy-64" edge="1">
          <mxGeometry relative="1" as="geometry">
            <mxPoint x="335.5" y="1040" as="targetPoint" />
          </mxGeometry>
        </mxCell>
        <mxCell id="p6gQJtzipxJj3ExKCdNy-62" value="Цикл 2" style="shape=loopLimit;whiteSpace=wrap;html=1;direction=west;" parent="1" vertex="1">
          <mxGeometry x="255.5" y="950" width="160" height="45.5" as="geometry" />
        </mxCell>
        <mxCell id="p6gQJtzipxJj3ExKCdNy-64" value="Конец" style="ellipse;whiteSpace=wrap;html=1;" parent="1" vertex="1">
          <mxGeometry x="255" y="1030" width="160" height="40" as="geometry" />
        </mxCell>
        <mxCell id="p6gQJtzipxJj3ExKCdNy-65" value="Да" style="text;html=1;align=center;verticalAlign=middle;whiteSpace=wrap;rounded=0;" parent="1" vertex="1">
          <mxGeometry x="330" y="440" width="60" height="30" as="geometry" />
        </mxCell>
        <mxCell id="p6gQJtzipxJj3ExKCdNy-66" value="Нет" style="text;html=1;align=center;verticalAlign=middle;whiteSpace=wrap;rounded=0;" parent="1" vertex="1">
          <mxGeometry x="384" y="390" width="60" height="30" as="geometry" />
        </mxCell>
        <mxCell id="KcLvzgO_E-JEy8P3smX2-6" value="" style="edgeStyle=orthogonalEdgeStyle;rounded=0;orthogonalLoop=1;jettySize=auto;html=1;" edge="1" parent="1" source="p6gQJtzipxJj3ExKCdNy-27" target="KcLvzgO_E-JEy8P3smX2-5">
          <mxGeometry relative="1" as="geometry">
            <mxPoint x="100" y="960" as="targetPoint" />
            <mxPoint x="100" y="910" as="sourcePoint" />
          </mxGeometry>
        </mxCell>
        <mxCell id="KcLvzgO_E-JEy8P3smX2-5" value="&lt;div&gt;&lt;div&gt;sh := (b - a) / n&lt;/div&gt;&lt;div&gt;&amp;nbsp; x1 := a&lt;/div&gt;&lt;/div&gt;" style="rounded=0;whiteSpace=wrap;html=1;" vertex="1" parent="1">
          <mxGeometry x="20" y="920" width="160" height="40" as="geometry" />
        </mxCell>
      </root>
    </mxGraphModel>
  </diagram>
</mxfile>
